<?xml version="1.0" encoding="iso-8859-1"?>
<!-- Generator: Adobe Illustrator 19.0.0, SVG Export Plug-In . SVG Version: 6.00 Build 0)  -->
<svg xmlns="http://www.w3.org/2000/svg" xmlns:xlink="http://www.w3.org/1999/xlink" version="1.1" id="Layer_1" x="0px" y="0px" viewBox="0 0 512 512" style="enable-background:new 0 0 512 512;" xml:space="preserve" width="512" height="512">
<g>
	<path d="M407,31H105C47.103,31,0,78.103,0,136v120v15v210h512V271v-15V136C512,78.103,464.897,31,407,31z M377,61   c8.271,0,15,6.729,15,15s-6.729,15-15,15s-15-6.729-15-15S368.729,61,377,61z M276.067,61h58.513c-1.665,4.695-2.58,9.742-2.58,15   c0,24.813,20.187,45,45,45s45-20.187,45-45c0-4.845-0.779-9.509-2.202-13.885c22.197,3.834,41.074,17.449,52.028,36.24   c-5.003,4.362-11.394,7.037-18.16,7.417l-22.881,1.282l10.33,20.456c7.173,14.205,2.071,31.522-11.615,39.424   c-13.687,7.902-31.235,3.663-39.949-9.653L377,138.104l-12.551,19.176c-8.715,13.312-26.26,17.555-39.949,9.653   c-13.687-7.902-18.789-25.221-11.616-39.427l10.329-20.455l-22.88-1.282C284.445,104.879,272,91.803,272,76.001   C272,70.675,273.423,65.514,276.067,61z M29.91,131.991c12.049-3.019,25.377,1.785,32.539,12.727L75,163.893l12.55-19.175   c8.714-13.314,26.263-17.552,39.951-9.651c13.686,7.901,18.787,25.218,11.614,39.423l-10.33,20.456l22.88,1.282   C167.553,197.118,180,210.196,180,225.999c0,5.326-1.424,10.487-4.069,15.001H120c0-33.084-26.916-60-60-60   c-10.925,0-21.367,2.949-30.2,8.072L29.91,131.991z M90,241H30c0-16.542,13.458-30,30-30S90,224.458,90,241z M482,391h-30v30h30v30   H30v-30h30v-30H30V271h180v60h91v-60h181V391z M240,301v-30h31v30H240z M210,241h-1.923c1.258-4.857,1.923-9.89,1.924-15   c-0.001-25.292-15.833-47.101-38.362-55.796c3.734-23.858-7.236-48.472-29.139-61.118c-21.905-12.646-48.707-9.84-67.5,5.322   c-10.399-8.39-23.25-12.987-36.366-13.287C51.209,77.29,76.232,61,105,61h138.923C242.665,65.857,242,70.89,242,76   c0,25.291,15.832,47.099,38.36,55.793c-3.733,23.858,7.237,48.474,29.142,61.121c21.905,12.646,48.706,9.839,67.498-5.324   c18.913,15.259,45.724,17.896,67.501,5.323c21.912-12.651,32.883-37.279,29.136-61.146c2.736-1.059,5.985-2.321,8.533-3.76L482,241   C470.443,241,220.685,241,210,241z"/>
	<rect x="180" y="391" width="60" height="30"/>
	<rect x="271" y="391" width="60" height="30"/>
	<rect x="362" y="391" width="60" height="30"/>
	<rect x="90" y="391" width="60" height="30"/>
</g>















</svg>
